<svg width="121" height="121" viewBox="0 0 121 121" fill="none" xmlns="http://www.w3.org/2000/svg">
<path d="M87.4068 73.4306C86.9068 68.8306 85.7068 64.4306 83.8068 60.2306C82.1068 56.5306 79.9068 53.0306 77.2068 50.0306C76.8068 52.6306 76.3068 54.8306 75.9068 56.2306C75.3068 58.5306 74.9068 59.7306 74.5068 62.1306C74.2068 63.5306 74.1068 64.9306 74.0068 66.3306C74.0068 68.2306 74.2068 70.0306 74.7068 71.8306C76.7068 79.9306 75.0068 88.4306 70.1068 95.2306C68.3068 97.8306 66.1068 100.031 63.6068 101.931C62.8068 102.531 62.0068 103.131 61.2068 103.631C57.0068 106.131 52.4068 107.731 47.6068 108.331C37.5068 109.731 27.4068 106.131 20.5068 98.7306C18.8068 96.9306 17.3068 94.9306 16.1068 92.7306C15.6068 91.9306 15.2068 91.0306 14.8068 90.1306C9.70683 79.1306 11.1068 68.3306 18.4068 58.2306C20.7068 55.1306 23.6068 52.4306 26.9068 50.4306C27.4068 50.1306 27.9068 49.8306 28.4068 49.6306C35.3068 45.8306 43.3068 44.8306 50.9068 46.7306C58.1068 48.7306 64.2068 44.9306 70.9068 44.0306C62.1068 36.0306 48.0068 32.3306 34.5068 35.2306C25.8068 37.0306 17.9068 41.4306 11.8068 47.7306C4.00683 55.7306 -0.193172 66.4306 0.0068276 77.5306C0.0068276 78.4306 0.0068276 79.2306 0.106828 80.1306C0.806828 91.1306 5.80683 101.431 13.9068 108.831C24.2068 118.031 38.2068 121.931 51.8068 119.431C52.7068 119.231 53.6068 119.031 54.4068 118.831C64.0068 116.531 72.5068 111.031 78.5068 103.331C82.5068 98.2306 85.3068 92.2306 86.6068 85.8306C87.5068 81.7306 87.8068 77.5306 87.4068 73.4306Z" fill="#36C5ED"/>
<path d="M71.3069 60.6304L60.1069 49.8304L74.6069 46.4304C73.4069 51.5304 72.4069 56.1304 71.3069 60.6304Z" fill="#010101"/>
<path d="M120.407 22.8306C119.907 17.2306 117.607 12.2306 114.507 9.13061C113.907 11.5306 113.207 13.8306 112.807 16.2306C112.607 17.4306 112.707 18.6306 112.907 19.8306C113.707 22.9306 113.807 26.1306 113.107 29.2306C112.607 31.5306 111.607 33.6306 110.307 35.5306C109.307 37.0306 108.007 38.3306 106.507 39.4306C106.007 39.8306 105.607 40.1306 105.107 40.4306C102.707 41.9306 100.007 42.8306 97.2068 43.1306C89.8068 44.2306 82.5068 40.5306 78.9068 34.0306C78.6068 33.5306 78.4068 33.0306 78.2068 32.5306C75.2068 26.1306 76.0068 19.8306 80.3068 13.9306C81.6068 12.1306 83.3068 10.5306 85.2068 9.43061L86.0068 9.03061C90.0068 6.83061 94.7068 6.23061 99.1068 7.33061C103.307 8.53061 106.807 6.23061 110.707 5.73061C105.607 1.03061 97.4068 -1.06939 89.5068 0.530611C84.5068 1.53061 79.9068 4.13061 76.3068 7.83061C71.9068 12.5306 69.4068 18.7306 69.5068 25.2306C69.5068 25.7306 69.5068 26.2306 69.6068 26.7306C70.0068 33.1306 72.9068 39.1306 77.6068 43.4306C83.6068 48.8306 91.8068 51.0306 99.7068 49.6306C100.207 49.5306 100.707 49.4306 101.207 49.3306C106.707 48.0306 111.707 44.8306 115.207 40.3306C117.507 37.3306 119.207 33.8306 119.907 30.1306C120.507 27.7306 120.707 25.3306 120.407 22.8306Z" fill="#36C5ED"/>
<path d="M111.107 15.4306L104.607 9.13062L113.007 7.13062L111.107 15.4306Z" fill="#010101"/>
</svg>
